<?xml version="1.0" encoding="UTF-8" standalone="no" ?>
<!DOCTYPE svg PUBLIC "-//W3C//DTD SVG 1.1//EN" "http://www.w3.org/Graphics/SVG/1.1/DTD/svg11.dtd">
<svg xmlns="http://www.w3.org/2000/svg" xmlns:xlink="http://www.w3.org/1999/xlink" version="1.1" width="400" height="400" viewBox="0 0 400 400" xml:space="preserve">
<desc>Created with Fabric.js 3.6.2</desc>
<defs>
</defs>
<g transform="matrix(3.14 0 0 3.14 200 200)" id="Layer_19"  >
<path style="stroke: none; stroke-width: 1; stroke-dasharray: none; stroke-linecap: butt; stroke-dashoffset: 0; stroke-linejoin: miter; stroke-miterlimit: 4; fill: rgb(255,255,255); fill-rule: nonzero; opacity: 1;"  transform=" translate(-32, -32)" d="M 53.83 47.52 a 6.34 6.34 0 1 0 6.33 6.34 A 6.34 6.34 0 0 0 53.83 47.52 Z M 56.63 55 l -1.82 0 l 0 1.83 a 1 1 0 0 1 -1 1 h 0 a 1 1 0 0 1 -1 -1 l 0 -1.75 l -1.75 0 h 0 a 1 1 0 0 1 0 -2 l 1.83 0 l 0 -1.83 a 1 1 0 0 1 1 -1 h 0 a 1 1 0 0 1 1 1 l 0 1.75 l 1.75 0 h 0 a 1 1 0 0 1 1 1 A 1 1 0 0 1 56.63 55 Z M 39.79 33.21 a 2.89 2.89 0 1 1 -2.89 -2.89 A 2.89 2.89 0 0 1 39.79 33.21 Z m -9.93 0 A 2.89 2.89 0 1 1 27 30.32 A 2.89 2.89 0 0 1 29.86 33.21 Z M 32 0.1 A 31.9 31.9 0 1 0 46.22 60.56 a 10.14 10.14 0 0 1 14.32 -14.3 A 31.91 31.91 0 0 0 32 0.1 Z M 47.72 38.74 s -2.09 3.87 -8 4.19 a 0.21 0.21 0 0 1 -0.2 -0.09 l -1.33 -1.71 a 0.23 0.23 0 0 1 0.07 -0.35 c 0.88 -0.47 3.92 -2.14 5 -3.76 A 23.63 23.63 0 0 1 32 40.59 A 23.63 23.63 0 0 1 20.75 37 c 1.12 1.62 4.16 3.29 5 3.76 a 0.23 0.23 0 0 1 0.07 0.35 l -1.33 1.71 a 0.21 0.21 0 0 1 -0.2 0.09 c -6 -0.32 -8 -4.19 -8 -4.19 c -0.37 -6.46 3 -14.2 3.67 -15.69 a 1.05 1.05 0 0 1 0.36 -0.42 a 14.66 14.66 0 0 1 7.45 -2.41 l 0.06 0.23 c -4.25 1.15 -5.91 2.54 -6.45 3.11 a 0.06 0.06 0 0 0 0.08 0.1 C 25.78 21.3 32 21.43 32 21.43 s 6.22 -0.13 10.55 2.23 a 0.06 0.06 0 0 0 0.08 -0.1 c -0.54 -0.57 -2.2 -2 -6.45 -3.11 l 0.07 -0.23 a 14.66 14.66 0 0 1 7.44 2.41 a 1.05 1.05 0 0 1 0.36 0.42 C 44.73 24.54 48.09 32.28 47.72 38.74 Z" stroke-linecap="round" />
</g>
</svg>