<?xml version="1.0" encoding="UTF-8"?> <svg xmlns="http://www.w3.org/2000/svg" width="190" height="81" viewBox="0 0 190 81" fill="none"> <g clip-path="url(#clip0_316_1682)"> <path d="M21.0553 35.0902H0V58.4968H5.86042V50.8818H17.0899L22.2134 58.4968H28.7757L23.1258 50.8467C24.8804 50.5658 26.1437 49.899 26.9157 48.8463C27.6877 47.7936 28.0739 46.1092 28.0739 43.8633V42.1087C28.1003 41.0311 27.9703 39.9554 27.6877 38.9153C27.4411 38.1122 27.0083 37.3787 26.4245 36.7746C25.8055 36.1845 25.062 35.7408 24.2487 35.4762C23.2076 35.1985 22.1326 35.0686 21.0553 35.0902V35.0902ZM20.1079 45.7232H5.86042V40.2488H20.1079C20.915 40.2488 21.4764 40.3891 21.7572 40.6348C22.038 40.8804 22.2134 41.3366 22.2134 42.0034V43.9685C22.2134 44.6704 22.0379 45.1266 21.7572 45.3722C21.4765 45.6179 20.915 45.7232 20.1079 45.7232Z" fill="white"></path> <path d="M36.6963 51.5841V35.0908H30.8359V51.4437C30.8359 52.7773 30.9412 53.8651 31.187 54.6723C31.4412 55.4799 31.8866 56.2143 32.4853 56.813C33.084 57.4117 33.8184 57.8571 34.626 58.1113C35.4682 58.3922 36.5209 58.4974 37.8545 58.4974H51.8914C53.1897 58.4974 54.2427 58.3922 55.0849 58.1113C55.9103 57.8744 56.6601 57.427 57.2604 56.813C57.8585 56.2198 58.2936 55.4825 58.5239 54.6723C58.8059 53.62 58.9359 52.5328 58.9098 51.4437V35.0908H53.0494V51.5841C53.0494 52.286 52.874 52.7423 52.5933 52.9878C52.3124 53.2334 51.7511 53.3389 50.944 53.3389H38.802C37.9598 53.3389 37.3982 53.2334 37.1175 52.9878C36.8369 52.7423 36.6963 52.286 36.6963 51.5841Z" fill="white"></path> <path d="M78.7343 58.4974V40.2494H90.069V35.0908H61.5391V40.2494H72.8739V58.4974H78.7343Z" fill="white"></path> <path d="M98.5557 51.5841V35.0908H92.6953V51.4437C92.6953 52.7773 92.8006 53.8651 93.0461 54.6723C93.3004 55.4799 93.7458 56.2142 94.3445 56.8129C94.9432 57.4116 95.6776 57.857 96.4851 58.1113C97.3274 58.3922 98.3803 58.4974 99.7137 58.4974H113.751C115.049 58.4974 116.102 58.3922 116.944 58.1113C117.77 57.8744 118.519 57.427 119.12 56.813C119.718 56.2198 120.153 55.4825 120.383 54.6723C120.665 53.62 120.795 52.5328 120.769 51.4437V35.0908H114.909V51.5841C114.909 52.286 114.733 52.7423 114.452 52.9878C114.172 53.2334 113.61 53.3389 112.803 53.3389H100.661C99.8189 53.3389 99.2576 53.2334 98.9767 52.9878C98.696 52.7423 98.5557 52.286 98.5557 51.5841Z" fill="white"></path> <path d="M150.47 41.8987V41.4425C150.47 39.2668 149.909 37.6525 148.786 36.6349C147.663 35.6172 145.873 35.0908 143.487 35.0908H123.59V58.4974H144.645C147.031 58.4974 148.821 58.006 149.944 56.9884C151.067 55.9708 151.628 54.3565 151.628 52.1807V51.6896C151.628 49.5137 151.067 47.9697 149.944 47.0573C149.741 46.927 149.53 46.8098 149.312 46.7063C149.016 46.5609 148.711 46.432 148.4 46.3203C149.092 45.9625 149.656 45.3984 150.014 44.7061C150.295 44.0744 150.47 43.1269 150.47 41.8987ZM129.45 44.4604V40.2494H142.539C143.382 40.2494 143.943 40.3897 144.224 40.6354C144.505 40.881 144.645 41.3372 144.645 42.004V42.7058C144.645 43.4077 144.505 43.8639 144.224 44.1095C143.943 44.3552 143.382 44.4604 142.539 44.4604H129.45ZM129.45 53.3389V49.1276H143.733C144.54 49.1276 145.101 49.2682 145.382 49.5137C145.663 49.7593 145.838 50.2156 145.838 50.8824V51.5841C145.838 52.286 145.663 52.7423 145.382 52.9878C145.101 53.2334 144.54 53.3389 143.733 53.3389H129.45Z" fill="white"></path> <path d="M159.575 40.2494H178.736V35.0908H153.715V58.4974H179.683V53.3389H159.575V49.3734H178.279L178.736 44.2148H159.575V40.2494Z" fill="white"></path> <path d="M185.901 33.6779C188.166 33.6779 190.002 31.8419 190.002 29.5772C190.002 27.3125 188.166 25.4766 185.901 25.4766C183.637 25.4766 181.801 27.3125 181.801 29.5772C181.801 31.8419 183.637 33.6779 185.901 33.6779Z" fill="#F41240"></path> </g> <defs> <clipPath id="clip0_316_1682"> <rect width="190" height="81" fill="white"></rect> </clipPath> </defs> </svg> 