<?xml version="1.0" encoding="UTF-8"?> <svg xmlns="http://www.w3.org/2000/svg" width="194" height="81" viewBox="0 0 194 81" fill="none"> <path d="M27.5 74C42.6878 74 55 61.6878 55 46.5C55 31.3122 42.6878 19 27.5 19C12.3122 19 0 31.3122 0 46.5C0 61.6878 12.3122 74 27.5 74Z" fill="url(#paint0_linear_316_1737)"></path> <path fill-rule="evenodd" clip-rule="evenodd" d="M12.4476 46.2094C20.4644 42.7166 25.8102 40.4139 28.485 39.3014C36.122 36.1249 37.7089 35.5731 38.7433 35.5549C38.9708 35.5509 39.4794 35.6073 39.8089 35.8746C40.0871 36.1004 40.1636 36.4053 40.2003 36.6193C40.2369 36.8334 40.2825 37.3209 40.2463 37.7019C39.8324 42.0503 38.0417 52.6027 37.1306 57.473C36.7451 59.5338 35.9861 60.2248 35.2513 60.2924C33.6543 60.4394 32.4416 59.237 30.8949 58.2231C28.4745 56.6365 27.1072 55.6489 24.7578 54.1007C22.0427 52.3115 23.8028 51.3281 25.3501 49.721C25.755 49.3004 32.7914 42.9003 32.9275 42.3197C32.9446 42.2471 32.9604 41.9764 32.7996 41.8335C32.6388 41.6906 32.4015 41.7395 32.2302 41.7783C31.9875 41.8334 28.1209 44.3891 20.6306 49.4453C19.533 50.1989 18.539 50.5661 17.6483 50.5469C16.6664 50.5257 14.7776 49.9917 13.3735 49.5353C11.6513 48.9755 10.2826 48.6795 10.4018 47.7287C10.4638 47.2335 11.1458 46.7271 12.4476 46.2094Z" fill="white"></path> <path d="M69.9805 41.413V37.9111H86.4795V41.413H80.3292V58.0003H76.1308V41.413H69.9805Z" fill="white"></path> <path d="M93.7996 58.2946C92.2498 58.2946 90.9157 57.9807 89.7975 57.3529C88.6858 56.7186 87.8291 55.8227 87.2275 54.6652C86.6258 53.5012 86.325 52.1246 86.325 50.5355C86.325 48.9857 86.6258 47.6255 87.2275 46.4549C87.8291 45.2844 88.6759 44.3721 89.768 43.7182C90.8667 43.0642 92.1549 42.7372 93.6328 42.7372C94.6268 42.7372 95.5522 42.8975 96.4088 43.2179C97.2721 43.5318 98.0241 44.0059 98.665 44.6402C99.3124 45.2746 99.8159 46.0724 100.176 47.0337C100.535 47.9884 100.715 49.1067 100.715 50.3884V51.5361H87.9926V48.9465H96.7816C96.7816 48.3448 96.6508 47.8119 96.3892 47.3476C96.1276 46.8833 95.7647 46.5203 95.3004 46.2587C94.8426 45.9906 94.3097 45.8566 93.7015 45.8566C93.0672 45.8566 92.5048 46.0037 92.0143 46.298C91.5304 46.5857 91.1511 46.9748 90.8765 47.4653C90.6018 47.9492 90.4612 48.4887 90.4547 49.0838V51.5459C90.4547 52.2914 90.592 52.9355 90.8667 53.4783C91.1479 54.0211 91.5435 54.4396 92.0536 54.7339C92.5636 55.0281 93.1685 55.1753 93.8683 55.1753C94.3326 55.1753 94.7576 55.1099 95.1435 54.9791C95.5293 54.8483 95.8595 54.6521 96.1342 54.3906C96.4088 54.129 96.6181 53.8085 96.762 53.4293L100.627 53.6843C100.431 54.6129 100.028 55.4238 99.4203 56.117C98.8186 56.8036 98.0404 57.3398 97.0857 57.7257C96.1375 58.105 95.0421 58.2946 93.7996 58.2946Z" fill="white"></path> <path d="M107.621 37.9111V58.0003H103.442V37.9111H107.621Z" fill="white"></path> <path d="M117.835 58.2946C116.285 58.2946 114.951 57.9807 113.832 57.3529C112.721 56.7186 111.864 55.8227 111.262 54.6652C110.661 53.5012 110.36 52.1246 110.36 50.5355C110.36 48.9857 110.661 47.6255 111.262 46.4549C111.864 45.2844 112.711 44.3721 113.803 43.7182C114.902 43.0642 116.19 42.7372 117.668 42.7372C118.662 42.7372 119.587 42.8975 120.444 43.2179C121.307 43.5318 122.059 44.0059 122.7 44.6402C123.347 45.2746 123.851 46.0724 124.211 47.0337C124.57 47.9884 124.75 49.1067 124.75 50.3884V51.5361H112.028V48.9465H120.817C120.817 48.3448 120.686 47.8119 120.424 47.3476C120.163 46.8833 119.8 46.5203 119.335 46.2587C118.878 45.9906 118.345 45.8566 117.736 45.8566C117.102 45.8566 116.54 46.0037 116.049 46.298C115.565 46.5857 115.186 46.9748 114.911 47.4653C114.637 47.9492 114.496 48.4887 114.49 49.0838V51.5459C114.49 52.2914 114.627 52.9355 114.902 53.4783C115.183 54.0211 115.578 54.4396 116.089 54.7339C116.599 55.0281 117.203 55.1753 117.903 55.1753C118.368 55.1753 118.793 55.1099 119.178 54.9791C119.564 54.8483 119.894 54.6521 120.169 54.3906C120.444 54.129 120.653 53.8085 120.797 53.4293L124.662 53.6843C124.466 54.6129 124.063 55.4238 123.455 56.117C122.854 56.8036 122.075 57.3398 121.121 57.7257C120.172 58.105 119.077 58.2946 117.835 58.2946Z" fill="white"></path> <path d="M134.265 63.9643C132.911 63.9643 131.75 63.7779 130.783 63.4052C129.821 63.039 129.056 62.5387 128.487 61.9044C127.918 61.2701 127.549 60.5573 127.379 59.766L131.244 59.2461C131.361 59.5469 131.548 59.8281 131.803 60.0897C132.058 60.3513 132.395 60.5605 132.813 60.7175C133.238 60.881 133.755 60.9627 134.363 60.9627C135.272 60.9627 136.021 60.7404 136.609 60.2957C137.204 59.8575 137.502 59.1218 137.502 58.0886V55.3322H137.325C137.142 55.7508 136.868 56.1464 136.501 56.5191C136.135 56.8919 135.664 57.196 135.089 57.4314C134.513 57.6668 133.827 57.7845 133.029 57.7845C131.898 57.7845 130.868 57.5229 129.939 56.9998C129.017 56.4701 128.281 55.6625 127.732 54.5769C127.189 53.4848 126.918 52.105 126.918 50.4375C126.918 48.7307 127.196 47.3051 127.752 46.1607C128.307 45.0162 129.046 44.1596 129.968 43.5906C130.897 43.0217 131.914 42.7372 133.019 42.7372C133.863 42.7372 134.569 42.8811 135.138 43.1689C135.707 43.45 136.165 43.8032 136.511 44.2282C136.864 44.6468 137.136 45.0588 137.325 45.4642H137.482V42.9334H141.632V58.1475C141.632 59.4292 141.318 60.5017 140.69 61.3649C140.062 62.2281 139.192 62.8755 138.081 63.3071C136.976 63.7452 135.704 63.9643 134.265 63.9643ZM134.353 54.6456C135.027 54.6456 135.596 54.4788 136.06 54.1453C136.531 53.8053 136.891 53.3214 137.139 52.6936C137.394 52.0592 137.522 51.3007 137.522 50.4178C137.522 49.535 137.397 48.7699 137.149 48.1225C136.9 47.4685 136.541 46.9617 136.07 46.6021C135.599 46.2424 135.027 46.0626 134.353 46.0626C133.667 46.0626 133.088 46.2489 132.617 46.6217C132.146 46.9879 131.79 47.498 131.548 48.1519C131.306 48.8059 131.185 49.5612 131.185 50.4178C131.185 51.2876 131.306 52.0396 131.548 52.6739C131.796 53.3017 132.153 53.7889 132.617 54.1355C133.088 54.4756 133.667 54.6456 134.353 54.6456Z" fill="white"></path> <path d="M144.957 58.0003V42.9334H149.008V45.5623H149.165C149.44 44.6271 149.901 43.9209 150.548 43.4435C151.196 42.9596 151.941 42.7176 152.785 42.7176C152.994 42.7176 153.22 42.7307 153.461 42.7569C153.703 42.783 153.916 42.819 154.099 42.8648V46.5726C153.903 46.5138 153.631 46.4615 153.285 46.4157C152.938 46.3699 152.621 46.347 152.333 46.347C151.719 46.347 151.169 46.4811 150.685 46.7492C150.208 47.0108 149.829 47.377 149.548 47.8478C149.273 48.3187 149.136 48.8614 149.136 49.4762V58.0003H144.957Z" fill="white"></path> <path d="M160.124 58.2848C159.163 58.2848 158.306 58.118 157.554 57.7845C156.802 57.4445 156.207 56.9442 155.769 56.2837C155.337 55.6167 155.122 54.7862 155.122 53.7922C155.122 52.9551 155.275 52.2522 155.583 51.6832C155.89 51.1143 156.309 50.6565 156.838 50.3099C157.368 49.9633 157.97 49.7018 158.643 49.5252C159.323 49.3486 160.036 49.2244 160.782 49.1525C161.658 49.0609 162.364 48.9759 162.9 48.8974C163.437 48.8124 163.826 48.6881 164.068 48.5247C164.31 48.3612 164.431 48.1192 164.431 47.7988V47.7399C164.431 47.1187 164.234 46.638 163.842 46.298C163.456 45.9579 162.907 45.7879 162.194 45.7879C161.442 45.7879 160.844 45.9547 160.399 46.2882C159.954 46.6151 159.66 47.0271 159.516 47.5241L155.651 47.2102C155.848 46.2947 156.233 45.5034 156.809 44.8364C157.384 44.1628 158.127 43.6462 159.036 43.2866C159.951 42.9204 161.01 42.7372 162.214 42.7372C163.051 42.7372 163.852 42.8353 164.617 43.0315C165.389 43.2277 166.072 43.5318 166.667 43.9438C167.269 44.3558 167.743 44.8855 168.089 45.5329C168.436 46.1737 168.609 46.9421 168.609 47.838V58.0003H164.646V55.911H164.529C164.287 56.3818 163.963 56.7971 163.558 57.1567C163.152 57.5099 162.665 57.7878 162.096 57.9905C161.527 58.1867 160.87 58.2848 160.124 58.2848ZM161.321 55.4009C161.936 55.4009 162.479 55.2799 162.949 55.038C163.42 54.7895 163.79 54.4559 164.058 54.0374C164.326 53.6189 164.46 53.1448 164.46 52.6151V51.0162C164.329 51.1012 164.149 51.1797 163.921 51.2516C163.698 51.317 163.446 51.3791 163.165 51.438C162.884 51.4903 162.603 51.5393 162.322 51.5851C162.04 51.6244 161.785 51.6603 161.556 51.693C161.066 51.765 160.638 51.8794 160.271 52.0363C159.905 52.1933 159.621 52.4058 159.418 52.6739C159.215 52.9355 159.114 53.2625 159.114 53.6549C159.114 54.2238 159.32 54.6587 159.732 54.9595C160.151 55.2538 160.68 55.4009 161.321 55.4009Z" fill="white"></path> <path d="M171.851 58.0003V42.9334H175.834V45.5917H176.01C176.324 44.7089 176.847 44.0124 177.58 43.5024C178.312 42.9923 179.188 42.7372 180.209 42.7372C181.242 42.7372 182.121 42.9956 182.847 43.5122C183.573 44.0223 184.057 44.7154 184.299 45.5917H184.456C184.763 44.7285 185.319 44.0386 186.124 43.522C186.934 42.9988 187.892 42.7372 188.998 42.7372C190.404 42.7372 191.545 43.1852 192.421 44.0811C193.304 44.9705 193.745 46.2326 193.745 47.8674V58.0003H189.576V48.6914C189.576 47.8544 189.354 47.2266 188.909 46.8081C188.465 46.3895 187.909 46.1803 187.242 46.1803C186.483 46.1803 185.891 46.4222 185.466 46.9061C185.041 47.3835 184.829 48.0146 184.829 48.7993V58.0003H180.778V48.6031C180.778 47.8642 180.565 47.2756 180.14 46.8375C179.721 46.3993 179.169 46.1803 178.482 46.1803C178.018 46.1803 177.599 46.298 177.227 46.5334C176.86 46.7623 176.569 47.086 176.354 47.5045C176.138 47.9165 176.03 48.4004 176.03 48.9563V58.0003H171.851Z" fill="white"></path> <defs> <linearGradient id="paint0_linear_316_1737" x1="27.5" y1="19" x2="27.5" y2="73.5921" gradientUnits="userSpaceOnUse"> <stop stop-color="#2AABEE"></stop> <stop offset="1" stop-color="#229ED9"></stop> </linearGradient> </defs> </svg> 