<?xml version="1.0" encoding="UTF-8"?> <svg xmlns="http://www.w3.org/2000/svg" width="133" height="81" viewBox="0 0 133 81" fill="none"> <path d="M11.5958 38.8814V37.6311C11.1674 37.5739 10.7319 37.5381 10.2822 37.5381C4.92064 37.5311 0.558594 41.8967 0.558594 47.2699C0.558594 50.5638 2.20061 53.4791 4.7136 55.244C3.093 53.5077 2.10066 51.1712 2.10066 48.6132C2.10066 43.3186 6.34133 39.0029 11.5958 38.8814Z" fill="#25F4EE"></path> <path d="M11.8325 53.0584C14.2242 53.0584 16.1803 51.1506 16.2659 48.7784L16.2731 27.5786H20.1426C20.064 27.1428 20.0212 26.6926 20.0212 26.2354H14.7382L14.731 47.4351C14.6453 49.8073 12.6892 51.7151 10.2976 51.7151C9.55512 51.7151 8.85548 51.5293 8.23438 51.2006C9.03396 52.3225 10.3476 53.0584 11.8325 53.0584Z" fill="#25F4EE"></path> <path d="M27.3723 34.7745V33.5955C25.8944 33.5955 24.5237 33.1597 23.3672 32.4023C24.3952 33.5812 25.7873 34.4387 27.3723 34.7745Z" fill="#25F4EE"></path> <path d="M23.3683 32.4021C22.2402 31.1088 21.562 29.4226 21.562 27.5791H20.1484C20.5126 29.594 21.7119 31.3232 23.3683 32.4021Z" fill="#FE2C55"></path> <path d="M10.2921 42.8192C7.84339 42.8192 5.85156 44.8126 5.85156 47.2635C5.85156 48.9712 6.82248 50.4574 8.23605 51.2004C7.70775 50.4716 7.39363 49.5785 7.39363 48.6068C7.39363 46.1559 9.38545 44.1625 11.8342 44.1625C12.2911 44.1625 12.7337 44.241 13.1478 44.3697V38.9679C12.7195 38.9108 12.284 38.875 11.8342 38.875C11.7556 38.875 11.6842 38.8822 11.6058 38.8822V43.0264C11.1845 42.8977 10.749 42.8192 10.2921 42.8192Z" fill="#FE2C55"></path> <path d="M27.3746 34.7734V38.8819C24.6331 38.8819 22.0916 38.0031 20.0213 36.5169V47.2704C20.0213 52.6365 15.6592 57.0092 10.2906 57.0092C8.22019 57.0092 6.2926 56.352 4.71484 55.2445C6.49251 57.1522 9.02692 58.3525 11.8326 58.3525C17.1942 58.3525 21.5633 53.9869 21.5633 48.6137V37.8602C23.6337 39.3464 26.1753 40.2252 28.9166 40.2252V34.9378C28.3813 34.9378 27.8672 34.8806 27.3746 34.7734Z" fill="#FE2C55"></path> <path d="M20.0209 47.2712V36.5178C22.0913 38.0039 24.6328 38.8828 27.3743 38.8828V34.7743C25.7893 34.4385 24.3972 33.581 23.3692 32.4021C21.7129 31.3232 20.5206 29.594 20.1423 27.5791H16.2728L16.2657 48.7789C16.18 51.1511 14.2239 53.0588 11.8323 53.0588C10.3473 53.0588 9.04085 52.3229 8.22698 51.2082C6.81343 50.4581 5.84249 48.979 5.84249 47.2712C5.84249 44.8204 7.83433 42.827 10.2831 42.827C10.74 42.827 11.1826 42.9056 11.5967 43.0342V38.89C6.34224 39.0043 2.10156 43.32 2.10156 48.6145C2.10156 51.1726 3.09391 53.5019 4.71451 55.2453C6.29227 56.3528 8.21984 57.0102 10.2902 57.0102C15.6517 57.0102 20.0209 52.6373 20.0209 47.2712Z" fill="white"></path> <path d="M34.1406 34.7881H50.6535L49.14 39.5182H44.8565V57.0026H39.5164V39.5182L34.1478 39.5253L34.1406 34.7881Z" fill="white"></path> <path d="M77.7109 34.7881H94.6094L93.0959 39.5182H88.4341V57.0026H83.0868V39.5182L77.7181 39.5253L77.7109 34.7881Z" fill="white"></path> <path d="M51.6641 41.8555H56.9542V57.0033H51.6927L51.6641 41.8555Z" fill="white"></path> <path d="M59.0618 34.7314H64.352V45.0776L69.5922 39.9259H75.9032L69.2709 46.3638L76.6956 57.003H70.8701L65.9155 49.6291L64.3448 51.1511V57.003H59.0547V34.7314H59.0618Z" fill="white"></path> <path d="M115.105 34.7314H120.396V45.0776L125.636 39.9259H131.947L125.315 46.3638L132.74 57.003H126.921L121.967 49.6291L120.396 51.1511V57.003H115.105V34.7314Z" fill="white"></path> <path d="M54.3113 40.1262C55.7821 40.1262 56.9743 38.933 56.9743 37.461C56.9743 35.9891 55.7821 34.7959 54.3113 34.7959C52.8406 34.7959 51.6484 35.9891 51.6484 37.461C51.6484 38.933 52.8406 40.1262 54.3113 40.1262Z" fill="white"></path> <path d="M93.9329 47.9354C93.9329 43.1697 97.6095 39.2611 102.286 38.8968C102.05 38.8753 101.729 38.8682 101.493 38.8682C96.4887 38.8682 92.4336 42.9267 92.4336 47.9354C92.4336 52.9443 96.4887 57.0027 101.493 57.0027C101.729 57.0027 102.05 56.9884 102.286 56.9742C97.6167 56.6097 93.9329 52.7013 93.9329 47.9354Z" fill="#25F4EE"></path> <path d="M104.339 38.8682C104.096 38.8682 103.775 38.8825 103.539 38.8968C108.208 39.2611 111.885 43.1697 111.885 47.9354C111.885 52.7013 108.208 56.6097 103.539 56.9742C103.775 56.9955 104.096 57.0027 104.339 57.0027C109.343 57.0027 113.398 52.9443 113.398 47.9354C113.398 42.9267 109.343 38.8682 104.339 38.8682Z" fill="#FE2C55"></path> <path d="M102.911 52.3441C100.477 52.3441 98.5063 50.372 98.5063 47.9354C98.5063 45.4989 100.477 43.5269 102.911 43.5269C105.346 43.5269 107.316 45.4989 107.316 47.9354C107.316 50.372 105.339 52.3441 102.911 52.3441ZM102.911 38.8682C97.9066 38.8682 93.8516 42.9267 93.8516 47.9354C93.8516 52.9443 97.9066 57.0027 102.911 57.0027C107.916 57.0027 111.971 52.9443 111.971 47.9354C111.971 42.9267 107.916 38.8682 102.911 38.8682Z" fill="white"></path> </svg> 