<?xml version="1.0" encoding="UTF-8"?> <svg xmlns="http://www.w3.org/2000/svg" width="257" height="81" viewBox="0 0 257 81" fill="none"> <path d="M77.6866 52.6871C77.6866 56.0802 74.5275 58.5373 70.0813 58.5373H59.668V37.4766H69.7303C74.0595 37.4766 77.1016 39.8167 77.1016 43.0928C77.1016 45.3158 75.9316 46.7199 74.1764 47.539C76.0485 48.241 77.6866 50.113 77.6866 52.6871ZM64.2311 41.3377V45.9009H69.6133C71.2514 45.9009 72.3044 44.9649 72.3044 43.6778C72.3044 42.3908 71.1344 41.3377 69.6133 41.3377H64.2311ZM70.0813 54.6762C71.8364 54.6762 73.1235 53.6231 73.1235 52.1021C73.1235 50.581 71.9534 49.528 70.0813 49.528H64.2311V54.6762H70.0813Z" fill="white"></path> <path d="M94.8933 58.4203L87.6393 50.113H86.4693V58.4203H81.7891V37.4766H86.4693V45.5498H87.6393L94.6595 37.4766H100.159L91.3834 47.539L100.977 58.4203H94.8933Z" fill="white"></path> <path d="M100.973 48.0064C100.973 41.6881 105.654 37.125 112.205 37.125C118.758 37.125 123.438 41.6881 123.438 48.0064C123.438 54.3246 118.758 58.8878 112.205 58.8878C105.654 58.8878 100.973 54.3246 100.973 48.0064ZM118.524 48.0064C118.524 44.0282 115.949 41.3372 112.205 41.3372C108.461 41.3372 105.887 44.0282 105.887 48.0064C105.887 51.9845 108.461 54.6757 112.205 54.6757C115.949 54.6757 118.524 51.9845 118.524 48.0064Z" fill="white"></path> <path d="M141.341 37.4766H146.022V58.4203H141.341V49.996H131.981V58.4203H127.301V37.4766H131.981V45.7838H141.341V37.4766Z" fill="white"></path> <path d="M156.083 58.4203V41.6887H148.828V37.4766H167.9V41.6887H160.645V58.4203H156.083Z" fill="white"></path> <path d="M188.026 46.7194V58.4198H184.633L183.697 55.1437C182.644 56.8987 180.421 58.8878 177.028 58.8878C172.816 58.8878 169.773 56.0797 169.773 52.2185C169.773 48.3574 172.816 45.6663 179.017 45.6663H183.58C183.346 42.9752 181.942 41.1032 179.368 41.1032C177.262 41.1032 175.858 42.2732 175.156 43.5602L170.944 42.8582C171.997 39.2311 175.624 37.125 179.602 37.125C184.75 37.125 188.026 40.6351 188.026 46.7194ZM183.463 49.2935H179.134C175.624 49.2935 174.453 50.4635 174.453 51.9845C174.453 53.7396 175.858 54.9097 178.198 54.9097C181.24 54.9097 183.463 52.6866 183.463 49.2935Z" fill="white"></path> <path d="M206.042 58.4203L198.788 50.113H197.618V58.4203H192.938V37.4766H197.618V45.5498H198.788L205.808 37.4766H211.307L202.532 47.539L212.126 58.4203H206.042Z" fill="white"></path> <path d="M220.555 58.4203V41.6887H213.301V37.4766H232.373V41.6887H225.118V58.4203H220.555Z" fill="white"></path> <path d="M255.77 49.2935H238.922C239.39 52.5696 241.73 54.6757 245.239 54.6757C247.697 54.6757 249.569 53.6226 250.622 52.1016L254.951 52.8036C253.43 56.7818 249.335 58.8878 244.888 58.8878C238.57 58.8878 234.008 54.3246 234.008 48.0064C234.008 41.6881 238.57 37.125 244.888 37.125C251.207 37.125 255.77 41.6881 255.77 47.7724C255.887 48.3574 255.77 48.8255 255.77 49.2935ZM239.273 45.6663H250.856C250.037 43.0922 247.93 41.2201 245.006 41.2201C242.197 41.1032 239.975 42.9752 239.273 45.6663Z" fill="white"></path> <path fill-rule="evenodd" clip-rule="evenodd" d="M3.14185 28.0979C0 31.2398 0 36.2965 0 46.41V48.1978C0 58.3113 0 63.368 3.14185 66.5099C6.28371 69.6517 11.3404 69.6517 21.4539 69.6517H23.2417C33.3552 69.6517 38.4119 69.6517 41.5538 66.5099C44.6957 63.368 44.6957 58.3113 44.6957 48.1978V46.41C44.6957 36.2965 44.6957 31.2398 41.5538 28.0979C38.4119 24.9561 33.3552 24.9561 23.2417 24.9561H21.4539C11.3404 24.9561 6.28371 24.9561 3.14185 28.0979ZM7.54239 38.5512C7.78449 50.172 13.5948 57.1556 23.7817 57.1556H24.3592V50.5072C28.1025 50.8796 30.9329 53.6172 32.0689 57.1556H37.3581C35.9055 51.8667 32.0876 48.9428 29.7038 47.8254C32.0876 46.4473 35.4397 43.0952 36.2405 38.5512H31.4357C30.3928 42.2386 27.3017 45.5906 24.3592 45.9072V38.5512H19.5543V51.4383C16.5745 50.6934 12.8128 47.0806 12.6451 38.5512H7.54239Z" fill="white"></path> </svg> 