<?xml version="1.0" encoding="UTF-8"?> <svg xmlns="http://www.w3.org/2000/svg" width="165" height="81" viewBox="0 0 165 81" fill="none"> <g clip-path="url(#clip0_316_1710)"> <path d="M51.5246 33.778C50.9182 31.5025 49.1379 29.7143 46.8724 29.1051C42.7661 28 26.3102 28 26.3102 28C26.3102 28 9.85443 28 5.75239 29.1051C3.48695 29.7143 1.70666 31.5025 1.10023 33.778C0 37.8983 0 46.5 0 46.5C0 46.5 0 55.1017 1.10023 59.222C1.70666 61.4975 3.48695 63.2857 5.75239 63.8949C9.85443 65 26.3102 65 26.3102 65C26.3102 65 42.7661 65 46.8681 63.8949C49.1335 63.2857 50.9138 61.4975 51.5203 59.222C52.6205 55.1017 52.6205 46.5 52.6205 46.5C52.6205 46.5 52.6205 37.8983 51.5203 33.778H51.5246Z" fill="#E70000"></path> <path d="M21.0469 54.4269L34.7218 46.4996L21.0469 38.5723V54.4269Z" fill="#FEFEFE"></path> <path d="M76.3844 61.6581C75.3448 60.9532 74.6041 59.8568 74.1623 58.3688C73.7248 56.8808 73.5039 54.9055 73.5039 52.4342V49.0709C73.5039 46.5779 73.7551 44.5721 74.2576 43.0624C74.7601 41.5526 75.5441 40.4475 76.6097 39.7557C77.6753 39.0639 79.0744 38.7158 80.807 38.7158C82.5397 38.7158 83.8781 39.0682 84.9091 39.7731C85.9357 40.4779 86.6893 41.5831 87.1658 43.0798C87.6423 44.5808 87.8805 46.5779 87.8805 49.0709V52.4342C87.8805 54.9055 87.6466 56.8895 87.1832 58.3862C86.7197 59.8873 85.966 60.9837 84.9264 61.6755C83.8868 62.3673 82.4747 62.7154 80.6944 62.7154C78.9141 62.7154 77.4283 62.3629 76.3844 61.6581ZM82.2191 58.0294C82.505 57.2724 82.6523 56.0411 82.6523 54.3268V47.1087C82.6523 45.4467 82.5093 44.2284 82.2191 43.4626C81.9289 42.6925 81.4221 42.3097 80.6944 42.3097C79.9667 42.3097 79.4945 42.6925 79.2086 43.4626C78.9184 44.2328 78.7755 45.4467 78.7755 47.1087V54.3268C78.7755 56.0411 78.9141 57.2767 79.1913 58.0294C79.4685 58.7865 79.9667 59.165 80.6944 59.165C81.4221 59.165 81.9289 58.7865 82.2191 58.0294V58.0294Z" fill="white"></path> <path d="M156.311 52.4908V53.6612C156.311 55.1492 156.354 56.2631 156.441 57.0071C156.528 57.7511 156.71 58.2906 156.987 58.6343C157.264 58.9737 157.688 59.1434 158.265 59.1434C159.04 59.1434 159.577 58.8388 159.863 58.234C160.153 57.6292 160.309 56.6198 160.335 55.2101L164.814 55.4756C164.84 55.6757 164.853 55.9541 164.853 56.3066C164.853 58.4472 164.268 60.0483 163.103 61.1056C161.938 62.1629 160.287 62.6937 158.156 62.6937C155.596 62.6937 153.803 61.8888 152.776 60.2746C151.746 58.6604 151.234 56.1673 151.234 52.791V48.7447C151.234 45.2684 151.767 42.7274 152.833 41.1263C153.898 39.5252 155.722 38.7246 158.308 38.7246C160.088 38.7246 161.457 39.0509 162.41 39.7079C163.363 40.3649 164.034 41.383 164.424 42.7709C164.814 44.1589 165.009 46.0733 165.009 48.5185V52.4865H156.315L156.311 52.4908ZM156.969 42.7405C156.705 43.0668 156.532 43.602 156.441 44.346C156.354 45.09 156.311 46.2168 156.311 47.731V49.393H160.11V47.731C160.11 46.243 160.058 45.1161 159.958 44.346C159.859 43.5759 159.677 43.0363 159.412 42.7187C159.148 42.4055 158.741 42.2445 158.191 42.2445C157.641 42.2445 157.229 42.4098 156.969 42.7361V42.7405Z" fill="white"></path> <path d="M63.7365 52.0604L57.8281 30.6279H62.9827L65.0533 40.3435C65.5817 42.7365 65.9672 44.777 66.2185 46.4652H66.3701C66.5433 45.2556 66.9332 43.2281 67.5353 40.3783L69.6794 30.6279H74.8341L68.8521 52.0604V62.3416H63.7321V52.0604H63.7365Z" fill="white"></path> <path d="M104.648 39.1689V62.3418H100.585L100.134 59.505H100.021C98.9169 61.6457 97.2622 62.716 95.0531 62.716C93.524 62.716 92.3935 62.2113 91.6658 61.2062C90.9381 60.1968 90.5742 58.6218 90.5742 56.4812V39.1689H95.7678V56.1766C95.7678 57.2121 95.8804 57.9474 96.1057 58.3868C96.3309 58.8263 96.7078 59.0482 97.2362 59.0482C97.6867 59.0482 98.1199 58.909 98.5357 58.6305C98.9516 58.352 99.2548 57.9996 99.4584 57.5732V39.1689H104.652H104.648Z" fill="white"></path> <path d="M131.284 39.1689V62.3418H127.221L126.771 59.505H126.658C125.554 61.6457 123.899 62.716 121.69 62.716C120.161 62.716 119.03 62.2113 118.303 61.2062C117.575 60.1968 117.211 58.6218 117.211 56.4812V39.1689H122.405V56.1766C122.405 57.2121 122.517 57.9474 122.742 58.3868C122.968 58.8263 123.345 59.0482 123.873 59.0482C124.323 59.0482 124.757 58.909 125.172 58.6305C125.588 58.352 125.892 57.9996 126.095 57.5732V39.1689H131.289H131.284Z" fill="white"></path> <path d="M118.757 34.8222H113.603V62.3416H108.522V34.8222H103.367V30.6279H118.757V34.8222V34.8222Z" fill="white"></path> <path d="M148.47 42.8713C148.154 41.4094 147.647 40.3521 146.945 39.6951C146.244 39.0381 145.278 38.7118 144.048 38.7118C143.095 38.7118 142.202 38.9816 141.375 39.5254C140.548 40.0693 139.907 40.7785 139.456 41.6617H139.417V29.4531H134.414V62.3415H138.702L139.231 60.1487H139.343C139.746 60.9318 140.348 61.5453 141.15 62.0022C141.951 62.4547 142.843 62.6809 143.822 62.6809C145.577 62.6809 146.872 61.8673 147.699 60.2444C148.526 58.6172 148.942 56.0806 148.942 52.626V48.9582C148.942 46.365 148.786 44.3332 148.47 42.8713V42.8713ZM143.71 52.3214C143.71 54.0096 143.64 55.3322 143.502 56.2894C143.363 57.2466 143.134 57.9297 142.804 58.33C142.48 58.7346 142.038 58.9348 141.488 58.9348C141.059 58.9348 140.665 58.8347 140.301 58.6302C139.937 58.4301 139.642 58.1255 139.417 57.7252V44.5725C139.59 43.9416 139.894 43.4282 140.322 43.0236C140.747 42.6189 141.215 42.4188 141.713 42.4188C142.241 42.4188 142.648 42.6276 142.934 43.041C143.225 43.4587 143.424 44.1548 143.536 45.1381C143.649 46.1214 143.705 47.518 143.705 49.3324V52.3171L143.71 52.3214Z" fill="white"></path> </g> <defs> <clipPath id="clip0_316_1710"> <rect width="165" height="81" fill="white"></rect> </clipPath> </defs> </svg> 